<?xml version="1.0" standalone="no"?><!DOCTYPE svg PUBLIC "-//W3C//DTD SVG 1.1//EN" "http://www.w3.org/Graphics/SVG/1.1/DTD/svg11.dtd"><svg t="1747231065592" class="icon" viewBox="0 0 1024 1024" version="1.1" xmlns="http://www.w3.org/2000/svg" p-id="981" xmlns:xlink="http://www.w3.org/1999/xlink" width="200" height="200"><path d="M624 336a240 240 0 1 0 240 240 240.08 240.08 0 0 0-240-240z m-32 384a144 144 0 1 1 144-144 144.224 144.224 0 0 1-144 144z" fill="#d81e06" p-id="982"></path><path d="M216 392m-56 0a56 56 0 1 0 112 0 56 56 0 1 0-112 0Z" fill="#d81e06" p-id="983"></path><path d="M944 928H80a64.064 64.064 0 0 1-64-64V288a64.064 64.064 0 0 1 64-64h292.912l32.416-86.4A64.4 64.4 0 0 1 465.28 96h253.44a64.368 64.368 0 0 1 59.936 41.568L811.088 224H944a64.064 64.064 0 0 1 64 64v576a64.064 64.064 0 0 1-64 64zM80 256a32.032 32.032 0 0 0-32 32v576a32.032 32.032 0 0 0 32 32h864a32.032 32.032 0 0 0 32-32V288a32.032 32.032 0 0 0-32-32h-144a16 16 0 0 1-14.976-10.384l-36.32-96.8A32.24 32.24 0 0 0 718.72 128H465.28a32.272 32.272 0 0 0-30 20.832l-36.304 96.8A16 16 0 0 1 384 256z" fill="#d81e06" p-id="984"></path><path d="M592 832a256 256 0 1 1 256-256 256.288 256.288 0 0 1-256 256z m0-480a224 224 0 1 0 224 224 224.256 224.256 0 0 0-224-224z" fill="#d81e06" p-id="985"></path><path d="M592 720a144 144 0 1 1 144-144 144.16 144.16 0 0 1-144 144z m0-256a112 112 0 1 0 112 112 112.128 112.128 0 0 0-112-112zM240 256H128a16 16 0 0 1-15.52-19.888l16-64A16 16 0 0 1 144 160h80a16 16 0 0 1 15.52 12.112l16 64A16 16 0 0 1 240 256z m-91.504-32h71.008l-8-32H156.48zM184 464a72 72 0 1 1 72-72 72.08 72.08 0 0 1-72 72z m0-112a40 40 0 1 0 40 40 40.048 40.048 0 0 0-40-40z" fill="#d81e06" p-id="986"></path></svg>